<svg xmlns="http://www.w3.org/2000/svg" xmlns:xlink="http://www.w3.org/1999/xlink" width="500" height="500" preserveAspectRatio="xMidYMid meet" version="1.0" viewBox="0 0 375 375" zoomAndPan="magnify"><g fill="#fff" fill-opacity="1"><g><g><path d="M 24.03125 0 L 6.9375 0 L 6.9375 -64.25 L 44.90625 -64.25 L 44.90625 -50.3125 L 24.03125 -50.3125 L 24.03125 -38.0625 L 43.28125 -38.0625 L 43.28125 -24.125 L 24.03125 -24.125 Z M 24.03125 0" transform="translate(4.62891, 242.953899)"/></g></g><g><g><path d="M 6.9375 0 L 6.9375 -64.25 L 24.390625 -64.25 L 24.390625 0 Z M 6.9375 0" transform="translate(53.144532, 242.953899)"/></g></g><g><g><path d="M 35.28125 0 L 17.9375 0 L 17.9375 -50.046875 L 2.234375 -50.046875 L 2.234375 -64.25 L 50.9375 -64.25 L 50.9375 -50.046875 L 35.28125 -50.046875 Z M 35.28125 0" transform="translate(84.477538, 242.953899)"/></g></g></g><g fill="#899da8" fill-opacity="1"><g><g><path d="M 6.9375 0 L 6.9375 -64.25 L 24.296875 -64.25 L 24.296875 -14.015625 L 49.046875 -14.015625 L 49.046875 0 Z M 6.9375 0" transform="translate(142.28437, 242.953899)"/></g></g><g><g><path d="M 61.5625 -64.25 L 61.5625 -25.578125 C 61.5625 -17.171875 59.179688 -10.660156 54.421875 -6.046875 C 49.660156 -1.429688 42.800781 0.875 33.84375 0.875 C 25.082031 0.875 18.347656 -1.363281 13.640625 -5.84375 C 8.941406 -10.320312 6.59375 -16.769531 6.59375 -25.1875 L 6.59375 -64.25 L 24.03125 -64.25 L 24.03125 -26.546875 C 24.03125 -22.003906 24.878906 -18.707031 26.578125 -16.65625 C 28.285156 -14.601562 30.796875 -13.578125 34.109375 -13.578125 C 37.648438 -13.578125 40.21875 -14.59375 41.8125 -16.625 C 43.40625 -18.664062 44.203125 -22 44.203125 -26.625 L 44.203125 -64.25 Z M 61.5625 -64.25" transform="translate(194.667179, 242.953899)"/></g></g><g><g><path d="M 48.953125 -19.515625 C 48.953125 -15.523438 47.941406 -11.984375 45.921875 -8.890625 C 43.898438 -5.804688 40.984375 -3.40625 37.171875 -1.6875 C 33.367188 0.0195312 28.90625 0.875 23.78125 0.875 C 19.5 0.875 15.90625 0.578125 13 -0.015625 C 10.101562 -0.617188 7.085938 -1.671875 3.953125 -3.171875 L 3.953125 -18.640625 C 7.265625 -16.929688 10.707031 -15.601562 14.28125 -14.65625 C 17.851562 -13.707031 21.132812 -13.234375 24.125 -13.234375 C 26.707031 -13.234375 28.597656 -13.675781 29.796875 -14.5625 C 30.992188 -15.457031 31.59375 -16.609375 31.59375 -18.015625 C 31.59375 -18.898438 31.347656 -19.671875 30.859375 -20.328125 C 30.378906 -20.984375 29.601562 -21.644531 28.53125 -22.3125 C 27.46875 -22.988281 24.625 -24.367188 20 -26.453125 C 15.8125 -28.359375 12.664062 -30.203125 10.5625 -31.984375 C 8.46875 -33.773438 6.914062 -35.828125 5.90625 -38.140625 C 4.894531 -40.453125 4.390625 -43.191406 4.390625 -46.359375 C 4.390625 -52.273438 6.539062 -56.890625 10.84375 -60.203125 C 15.15625 -63.515625 21.078125 -65.171875 28.609375 -65.171875 C 35.253906 -65.171875 42.035156 -63.632812 48.953125 -60.5625 L 43.640625 -47.15625 C 37.628906 -49.90625 32.441406 -51.28125 28.078125 -51.28125 C 25.828125 -51.28125 24.1875 -50.882812 23.15625 -50.09375 C 22.132812 -49.300781 21.625 -48.320312 21.625 -47.15625 C 21.625 -45.894531 22.273438 -44.765625 23.578125 -43.765625 C 24.878906 -42.773438 28.414062 -40.960938 34.1875 -38.328125 C 39.726562 -35.828125 43.570312 -33.148438 45.71875 -30.296875 C 47.875 -27.441406 48.953125 -23.847656 48.953125 -19.515625 Z M 48.953125 -19.515625" transform="translate(262.782409, 242.953899)"/></g></g><g><g><path d="M 35.28125 0 L 17.9375 0 L 17.9375 -50.046875 L 2.234375 -50.046875 L 2.234375 -64.25 L 50.9375 -64.25 L 50.9375 -50.046875 L 35.28125 -50.046875 Z M 35.28125 0" transform="translate(314.725765, 242.953899)"/></g></g></g></svg>