<svg xmlns="http://www.w3.org/2000/svg" xmlns:xlink="http://www.w3.org/1999/xlink" width="500" zoomAndPan="magnify" viewBox="0 0 375 112.499997" height="150" preserveAspectRatio="xMidYMid meet" version="1.0"><defs><g/></defs><g fill="#ffffff" fill-opacity="1"><g transform="translate(2.155803, 91.543135)"><g><path d="M 24.734375 0 L 7.140625 0 L 7.140625 -66.09375 L 46.203125 -66.09375 L 46.203125 -51.765625 L 24.734375 -51.765625 L 24.734375 -39.15625 L 44.53125 -39.15625 L 44.53125 -24.828125 L 24.734375 -24.828125 Z M 24.734375 0 "/></g></g><g transform="translate(52.066785, 91.543135)"><g><path d="M 7.140625 0 L 7.140625 -66.09375 L 25.09375 -66.09375 L 25.09375 0 Z M 7.140625 0 "/></g></g><g transform="translate(84.300961, 91.543135)"><g><path d="M 36.3125 0 L 18.453125 0 L 18.453125 -51.5 L 2.3125 -51.5 L 2.3125 -66.09375 L 52.40625 -66.09375 L 52.40625 -51.5 L 36.3125 -51.5 Z M 36.3125 0 "/></g></g></g><g fill="#899da8" fill-opacity="1"><g transform="translate(141.530074, 91.543135)"><g><path d="M 7.140625 0 L 7.140625 -66.09375 L 25 -66.09375 L 25 -14.421875 L 50.453125 -14.421875 L 50.453125 0 Z M 7.140625 0 "/></g></g><g transform="translate(195.419468, 91.543135)"><g><path d="M 63.34375 -66.09375 L 63.34375 -26.3125 C 63.34375 -17.664062 60.890625 -10.96875 55.984375 -6.21875 C 51.085938 -1.46875 44.03125 0.90625 34.8125 0.90625 C 25.800781 0.90625 18.875 -1.398438 14.03125 -6.015625 C 9.195312 -10.628906 6.78125 -17.257812 6.78125 -25.90625 L 6.78125 -66.09375 L 24.734375 -66.09375 L 24.734375 -27.3125 C 24.734375 -22.632812 25.601562 -19.238281 27.34375 -17.125 C 29.09375 -15.019531 31.671875 -13.96875 35.078125 -13.96875 C 38.734375 -13.96875 41.378906 -15.015625 43.015625 -17.109375 C 44.660156 -19.203125 45.484375 -22.628906 45.484375 -27.390625 L 45.484375 -66.09375 Z M 63.34375 -66.09375 "/></g></g><g transform="translate(265.493764, 91.543135)"><g><path d="M 50.359375 -20.078125 C 50.359375 -15.972656 49.316406 -12.332031 47.234375 -9.15625 C 45.160156 -5.976562 42.164062 -3.503906 38.25 -1.734375 C 34.332031 0.0234375 29.734375 0.90625 24.453125 0.90625 C 20.054688 0.90625 16.363281 0.597656 13.375 -0.015625 C 10.394531 -0.640625 7.289062 -1.71875 4.0625 -3.25 L 4.0625 -19.171875 C 7.46875 -17.421875 11.007812 -16.054688 14.6875 -15.078125 C 18.363281 -14.097656 21.742188 -13.609375 24.828125 -13.609375 C 27.472656 -13.609375 29.410156 -14.066406 30.640625 -14.984375 C 31.878906 -15.898438 32.5 -17.082031 32.5 -18.53125 C 32.5 -19.4375 32.25 -20.226562 31.75 -20.90625 C 31.257812 -21.582031 30.460938 -22.265625 29.359375 -22.953125 C 28.265625 -23.648438 25.335938 -25.070312 20.578125 -27.21875 C 16.265625 -29.175781 13.03125 -31.070312 10.875 -32.90625 C 8.71875 -34.75 7.117188 -36.859375 6.078125 -39.234375 C 5.035156 -41.617188 4.515625 -44.441406 4.515625 -47.703125 C 4.515625 -53.785156 6.726562 -58.53125 11.15625 -61.9375 C 15.59375 -65.34375 21.6875 -67.046875 29.4375 -67.046875 C 36.28125 -67.046875 43.253906 -65.460938 50.359375 -62.296875 L 44.890625 -48.515625 C 38.710938 -51.347656 33.378906 -52.765625 28.890625 -52.765625 C 26.566406 -52.765625 24.878906 -52.359375 23.828125 -51.546875 C 22.773438 -50.734375 22.25 -49.722656 22.25 -48.515625 C 22.25 -47.210938 22.914062 -46.050781 24.25 -45.03125 C 25.59375 -44.007812 29.234375 -42.140625 35.171875 -39.421875 C 40.867188 -36.859375 44.820312 -34.109375 47.03125 -31.171875 C 49.25 -28.234375 50.359375 -24.535156 50.359375 -20.078125 Z M 50.359375 -20.078125 "/></g></g><g transform="translate(318.931066, 91.543135)"><g><path d="M 36.3125 0 L 18.453125 0 L 18.453125 -51.5 L 2.3125 -51.5 L 2.3125 -66.09375 L 52.40625 -66.09375 L 52.40625 -51.5 L 36.3125 -51.5 Z M 36.3125 0 "/></g></g></g></svg>